<svg width="3600" height="3089" viewBox="0 0 3600 3089" fill="none" xmlns="http://www.w3.org/2000/svg">
<path d="M1908 1465L2094.5 1373.5L2259 1275.5L2453 1116L2624.5 1002L2864 960L3043 914L3229.5 960L3256 1177L3176 1373.5L3108.5 1569L2975 1796L2823 2010.5L2689 2176L2525 2307.5L2370.5 2425.5L2150 2504.5L1908 2560.5H1630.5L1354.5 2504.5L1022.5 2356.5L749.5 2225L526 2080.5L358.5 1936L260 1796L309 1569L424 1314.5L549 1074.5L651 864L782.5 677L989.5 660.5L1134 785L1213 1002L1292 1177L1440 1354L1607.5 1505" stroke="#0C8CE9" stroke-width="29"/>
</svg>
