<svg width="27" height="19" viewBox="0 0 27 19" fill="none" xmlns="http://www.w3.org/2000/svg">
<path d="M25.25 7.95508C25.9404 7.95508 26.5 8.51472 26.5 9.20508C26.5 9.89543 25.9404 10.4551 25.25 10.4551L25.25 9.20508L25.25 7.95508ZM0.366116 10.089C-0.122039 9.60081 -0.122039 8.80935 0.366116 8.3212L8.32107 0.366245C8.80922 -0.121911 9.60068 -0.121911 10.0888 0.366245C10.577 0.8544 10.577 1.64586 10.0888 2.13401L3.01777 9.20508L10.0888 16.2761C10.577 16.7643 10.577 17.5558 10.0888 18.0439C9.60068 18.5321 8.80922 18.5321 8.32107 18.0439L0.366116 10.089ZM25.25 9.20508L25.25 10.4551L1.25 10.4551L1.25 9.20508L1.25 7.95508L25.25 7.95508L25.25 9.20508Z" fill="black"/>
</svg>
