<svg width="27" height="19" viewBox="0 0 27 19" fill="none" xmlns="http://www.w3.org/2000/svg">
<path d="M1.25 7.95508C0.559644 7.95508 6.03528e-08 8.51472 0 9.20508C-6.03528e-08 9.89543 0.559644 10.4551 1.25 10.4551L1.25 9.20508L1.25 7.95508ZM26.1339 10.089C26.622 9.60081 26.622 8.80935 26.1339 8.3212L18.1789 0.366245C17.6908 -0.121911 16.8993 -0.121911 16.4112 0.366245C15.923 0.8544 15.923 1.64586 16.4112 2.13401L23.4822 9.20508L16.4112 16.2761C15.923 16.7643 15.923 17.5558 16.4112 18.0439C16.8993 18.5321 17.6908 18.5321 18.1789 18.0439L26.1339 10.089ZM1.25 9.20508L1.25 10.4551L25.25 10.4551L25.25 9.20508L25.25 7.95508L1.25 7.95508L1.25 9.20508Z" fill="black"/>
</svg>
